<svg width="687" height="258" viewBox="0 0 687 258" fill="none" xmlns="http://www.w3.org/2000/svg">
<g filter="url(#filter0_d_27_77)">
<rect x="119.5" y="0.5" width="449" height="249" rx="115.5" fill="#F6C1CC"/>
<rect x="119.5" y="0.5" width="449" height="249" rx="115.5" stroke="black"/>
<rect x="119.5" y="0.5" width="449" height="249" rx="115.5" stroke="black" stroke-opacity="0.2"/>
</g>
<path d="M300.26 163.352C301.156 160.216 302.18 156.76 303.332 152.984C304.548 149.144 305.956 144.632 307.556 139.448C309.156 134.264 311.012 128.12 313.124 121.016C315.3 113.912 317.796 105.496 320.612 95.768C320.676 95.512 320.804 95 320.996 94.232C321.188 93.464 321.284 92.696 321.284 91.928C321.284 91.416 321.188 91.032 320.996 90.776C320.804 90.456 320.452 90.296 319.94 90.296C318.532 90.296 317.188 90.872 315.908 92.024C314.628 93.112 313.476 94.52 312.452 96.248C311.492 97.912 310.724 99.672 310.148 101.528C309.572 103.32 309.284 104.952 309.284 106.424C309.284 107.832 309.54 109.208 310.052 110.552C307.492 110.552 305.668 109.976 304.58 108.824C303.556 107.672 303.044 106.232 303.044 104.504C303.044 102.328 303.716 100.152 305.06 97.976C306.404 95.8 308.1 93.816 310.148 92.024C312.196 90.168 314.34 88.696 316.58 87.608C318.82 86.456 320.868 85.88 322.724 85.88C324.836 85.88 326.564 86.712 327.908 88.376C329.316 89.976 330.436 92.184 331.268 95C332.164 97.816 332.9 101.016 333.476 104.6C334.116 108.184 334.692 111.96 335.204 115.928C335.844 120.344 336.388 124.12 336.836 127.256C337.284 130.328 337.668 132.952 337.988 135.128C338.308 137.24 338.596 139.096 338.852 140.696C339.108 142.296 339.364 143.864 339.62 145.4C340.26 142.392 340.996 139.128 341.828 135.608C342.66 132.024 343.524 128.376 344.42 124.664C345.316 120.888 346.212 117.24 347.108 113.72C348.068 110.136 348.996 106.808 349.892 103.736C350.788 100.664 351.62 98.008 352.388 95.768C353.156 93.528 353.828 91.864 354.404 90.776C354.916 89.816 355.78 88.76 356.996 87.608C358.212 86.392 359.748 85.784 361.604 85.784C360.516 88.728 359.268 92.344 357.86 96.632C356.516 100.856 355.14 105.464 353.732 110.456C352.324 115.384 350.948 120.44 349.604 125.624C348.324 130.744 347.14 135.704 346.052 140.504C345.028 145.304 344.196 149.688 343.556 153.656C342.98 157.624 342.692 160.856 342.692 163.352C340.452 163.352 338.628 162.776 337.22 161.624C335.812 160.536 334.756 158.424 334.052 155.288C333.796 154.008 333.412 152.024 332.9 149.336C332.388 146.648 331.812 143.544 331.172 140.024C330.596 136.504 329.988 132.824 329.348 128.984C328.708 125.144 328.068 121.368 327.428 117.656C326.852 113.944 326.308 110.616 325.796 107.672C325.284 104.664 324.868 102.296 324.548 100.568C321.604 111.256 319.076 120.312 316.964 127.736C314.916 135.16 313.124 141.208 311.588 145.88C310.052 150.488 308.676 154.072 307.46 156.632C306.308 159.192 305.156 160.952 304.004 161.912C302.852 162.872 301.604 163.352 300.26 163.352ZM362.729 158.072C359.913 158.072 357.961 157.144 356.873 155.288C355.785 153.496 355.241 151.448 355.241 149.144C355.241 147.096 355.561 145.016 356.201 142.904C356.841 140.792 357.705 138.808 358.793 136.952C359.881 135.096 361.097 133.592 362.441 132.44C363.785 131.288 365.161 130.712 366.569 130.712C366.953 130.712 367.401 130.808 367.913 131C368.489 131.128 368.905 131.32 369.161 131.576C368.457 132.344 367.689 133.432 366.857 134.84C366.089 136.248 365.353 137.784 364.649 139.448C364.009 141.048 363.465 142.68 363.017 144.344C362.633 145.944 362.441 147.416 362.441 148.76C362.441 150.232 362.697 151.384 363.209 152.216C363.721 153.048 364.553 153.464 365.705 153.464C366.985 153.464 368.489 152.792 370.217 151.448C372.009 150.04 373.705 148.344 375.305 146.36C373.321 144.632 371.849 142.648 370.889 140.408C369.993 138.104 369.545 135.512 369.545 132.632C369.545 131.032 369.897 129.336 370.601 127.544C371.305 125.752 372.393 124.248 373.865 123.032C375.337 121.816 377.257 121.208 379.625 121.208C382.313 121.208 384.169 121.976 385.193 123.512C386.281 124.984 386.825 126.776 386.825 128.888C386.825 131.256 386.185 133.944 384.905 136.952C383.689 139.896 382.217 142.712 380.489 145.4C381.385 145.912 382.377 146.168 383.465 146.168C384.425 146.168 385.577 145.944 386.921 145.496C388.265 145.048 389.545 144.312 390.761 143.288C392.041 142.2 393.065 140.792 393.833 139.064L395.369 140.216C394.025 143.352 392.169 145.656 389.801 147.128C387.497 148.536 385.257 149.24 383.081 149.24C382.249 149.24 381.417 149.176 380.585 149.048C379.753 148.856 378.985 148.6 378.281 148.28C376.105 150.968 373.641 153.272 370.889 155.192C368.201 157.112 365.481 158.072 362.729 158.072ZM377.513 143.48C379.113 141.24 380.425 138.84 381.449 136.28C382.537 133.656 383.081 131.256 383.081 129.08C383.081 127.48 382.825 126.328 382.313 125.624C381.865 124.856 381.225 124.472 380.393 124.472C379.113 124.472 377.833 125.368 376.553 127.16C375.273 128.888 374.633 131.096 374.633 133.784C374.633 135.32 374.857 137.048 375.305 138.968C375.817 140.824 376.553 142.328 377.513 143.48Z" fill="#8B1E2D"/>
<defs>
<filter id="filter0_d_27_77" x="115" y="0" width="458" height="258" filterUnits="userSpaceOnUse" color-interpolation-filters="sRGB">
<feFlood flood-opacity="0" result="BackgroundImageFix"/>
<feColorMatrix in="SourceAlpha" type="matrix" values="0 0 0 0 0 0 0 0 0 0 0 0 0 0 0 0 0 0 127 0" result="hardAlpha"/>
<feOffset dy="4"/>
<feGaussianBlur stdDeviation="2"/>
<feComposite in2="hardAlpha" operator="out"/>
<feColorMatrix type="matrix" values="0 0 0 0 0 0 0 0 0 0 0 0 0 0 0 0 0 0 0.25 0"/>
<feBlend mode="normal" in2="BackgroundImageFix" result="effect1_dropShadow_27_77"/>
<feBlend mode="normal" in="SourceGraphic" in2="effect1_dropShadow_27_77" result="shape"/>
</filter>
</defs>
</svg>
