<svg width="519" height="407" viewBox="0 0 519 407" fill="none" xmlns="http://www.w3.org/2000/svg">
<path d="M259.5 0L484.234 158.25H34.7664L259.5 0Z" fill="#8B1E2D"/>
<rect x="34" y="157" width="450" height="250" fill="#F6C1CC"/>
<path d="M259.5 314L484.234 155.75H34.7664L259.5 314Z" fill="#100E0F" fill-opacity="0.24"/>
<path d="M482.654 156.25H36.3457L259.5 313.389L482.654 156.25Z" stroke="#470D0D" stroke-opacity="0.35"/>
<path d="M259 317L449.526 182H68.4744L259 317Z" fill="#D9D9D9"/>
<path d="M143.159 208.253C144.407 209.507 147.323 209.921 152.647 209.927C159.499 209.935 166.738 203.06 170.745 198.022C170.912 197.812 170.124 199.881 170.538 201.759C170.74 202.677 171.78 203.224 173.137 203.543C180.96 205.386 188.711 202.195 192.681 203.75C196.083 205.083 200.413 205.117 203.859 205.014C208.025 204.889 210.045 198.859 214.733 190.622C215.794 188.757 216.517 188.198 216.216 189.741C215.165 195.128 213.394 199.881 213.498 201.759C213.544 202.608 213.808 203.224 214.329 203.75C215.484 204.92 217.771 205.324 221.825 205.638C228.963 206.19 237.807 202.433 244.599 198.762C246.773 197.586 247.458 201.091 248.81 201.132C253.3 201.268 255.61 195.09 256.968 195.908C258.282 196.7 257.705 200.866 258.95 202.471C264.449 209.563 276.085 199.894 279.114 199.89C280.298 199.889 280.694 200.715 281.011 201.863C281.77 204.612 281.748 206.992 282.058 207.83C282.382 208.703 285.699 206.591 290.283 204.506C295.562 202.105 304.681 201.355 314.912 201.148C325.958 200.924 330.656 197.805 331.596 198.006C336.902 199.138 331.289 207.82 331.703 210.015C331.861 210.854 332.944 210.761 333.992 210.554C340.68 209.233 347.782 201.593 350.513 196.46C351.091 195.373 351.143 194.269 351.249 194.77C351.784 197.287 351.77 200.301 352.708 201.866C353.172 202.641 353.852 203.224 354.586 203.543C358.128 205.087 362.631 201.781 368.89 199.9C370.429 199.437 371.198 198.445 371.934 198.536C373.685 198.752 374.139 201.349 375.176 202.186C380.057 206.122 390.192 195.73 396.156 193.115C396.62 192.911 392.77 196.307 388.904 201.32C387.464 203.187 387.314 203.851 388.449 204.17C389.584 204.49 392.067 204.49 393.657 204.283C395.247 204.076 395.868 203.662 396.507 202.609" stroke="black" stroke-width="2" stroke-linecap="round"/>
<path d="M166.989 232.71C168.644 233.951 170.532 234.798 174.169 235.008C180.902 235.397 191.797 232.315 202.865 228.348C209.513 225.966 212.134 224.557 213.178 225.178C214.868 226.183 214.642 229.148 215.893 230.712C217.046 232.154 219.025 233.124 221.941 233.544C225.669 234.081 231.956 231.054 238.434 229.167C240.691 228.509 241.187 230.176 241.4 231.23C241.614 232.283 241.614 233.111 241.924 233.744C242.234 234.378 242.855 234.792 243.692 234.798C251.422 234.856 263.104 224.376 268.648 220.817C270.977 219.321 266.698 227.68 267.422 229.562C270.035 236.348 281.949 221.635 283.617 222.353C287.447 224.002 286.759 229.775 288.217 231.029C291.868 234.171 304.662 222.739 311.106 217.982C311.94 217.366 312.463 216.217 312.783 215.27C313.731 212.464 312.683 231.023 313.824 233.218C317.15 239.614 328.555 228.96 332.32 227.8C334.942 226.992 337.547 227.894 343.179 225.928C346.579 224.741 349.255 223.723 351.133 224.031C352.108 224.19 352.598 225.787 353.745 226.426C356.548 227.066 361.979 225.203 367.623 222.899C369.542 222.457 369.542 223.491 369.542 224.557" stroke="black" stroke-width="2" stroke-linecap="round"/>
<path d="M207.75 261.556C215.2 262.798 221.935 263.645 228.084 263.751C242.198 263.996 251.415 257.179 254.968 256.022C256.184 255.626 256.451 257.555 257.385 258.509C262.716 263.946 273.784 255.292 276.919 255.179C278.099 255.136 277.985 257.342 278.399 258.299C279.909 261.787 287.781 259.261 297.495 259.151C299.508 259.255 300.335 259.462 301.176 259.568C302.016 259.675 302.844 259.675 303.697 259.675" stroke="black" stroke-width="2" stroke-linecap="round"/>
<path d="M223.057 287V278.273H226.006C226.69 278.273 227.25 278.396 227.685 278.643C228.122 278.888 228.446 279.219 228.656 279.636C228.866 280.054 228.972 280.52 228.972 281.034C228.972 281.548 228.866 282.016 228.656 282.436C228.449 282.857 228.128 283.192 227.693 283.442C227.259 283.689 226.702 283.812 226.023 283.812H223.909V282.875H225.989C226.457 282.875 226.834 282.794 227.118 282.632C227.402 282.47 227.608 282.251 227.736 281.976C227.866 281.697 227.932 281.384 227.932 281.034C227.932 280.685 227.866 280.372 227.736 280.097C227.608 279.821 227.401 279.605 227.114 279.449C226.827 279.29 226.446 279.21 225.972 279.21H224.114V287H223.057ZM230.674 287V278.273H233.623C234.305 278.273 234.864 278.389 235.302 278.622C235.739 278.852 236.063 279.169 236.273 279.572C236.484 279.976 236.589 280.435 236.589 280.949C236.589 281.463 236.484 281.919 236.273 282.317C236.063 282.714 235.741 283.027 235.306 283.254C234.871 283.479 234.316 283.591 233.64 283.591H231.254V282.636H233.606C234.072 282.636 234.447 282.568 234.731 282.432C235.018 282.295 235.225 282.102 235.353 281.852C235.484 281.599 235.549 281.298 235.549 280.949C235.549 280.599 235.484 280.294 235.353 280.033C235.222 279.771 235.013 279.57 234.727 279.428C234.44 279.283 234.06 279.21 233.589 279.21H231.731V287H230.674ZM234.782 283.08L236.93 287H235.702L233.589 283.08H234.782ZM238.35 287V278.273H243.617V279.21H239.407V282.159H243.344V283.097H239.407V286.062H243.685V287H238.35ZM250.294 280.455C250.243 280.023 250.036 279.688 249.672 279.449C249.309 279.21 248.863 279.091 248.334 279.091C247.948 279.091 247.61 279.153 247.32 279.278C247.033 279.403 246.809 279.575 246.647 279.794C246.488 280.013 246.408 280.261 246.408 280.54C246.408 280.773 246.463 280.973 246.574 281.141C246.688 281.305 246.833 281.443 247.009 281.554C247.185 281.662 247.37 281.751 247.563 281.822C247.756 281.891 247.934 281.946 248.096 281.989L248.982 282.227C249.209 282.287 249.462 282.369 249.74 282.474C250.022 282.58 250.29 282.723 250.546 282.905C250.804 283.084 251.017 283.314 251.185 283.595C251.353 283.876 251.436 284.222 251.436 284.631C251.436 285.102 251.313 285.528 251.066 285.909C250.821 286.29 250.463 286.592 249.992 286.817C249.523 287.041 248.953 287.153 248.283 287.153C247.658 287.153 247.117 287.053 246.659 286.851C246.205 286.649 245.847 286.368 245.586 286.007C245.327 285.646 245.181 285.227 245.147 284.75H246.238C246.266 285.08 246.377 285.352 246.57 285.568C246.766 285.781 247.013 285.94 247.311 286.045C247.613 286.148 247.936 286.199 248.283 286.199C248.686 286.199 249.049 286.134 249.37 286.003C249.691 285.869 249.945 285.685 250.132 285.449C250.32 285.21 250.414 284.932 250.414 284.614C250.414 284.324 250.333 284.088 250.171 283.906C250.009 283.724 249.796 283.577 249.532 283.463C249.267 283.349 248.982 283.25 248.675 283.165L247.601 282.858C246.919 282.662 246.38 282.382 245.982 282.018C245.584 281.655 245.385 281.179 245.385 280.591C245.385 280.102 245.517 279.676 245.782 279.312C246.049 278.946 246.407 278.662 246.855 278.46C247.307 278.256 247.811 278.153 248.368 278.153C248.931 278.153 249.431 278.254 249.868 278.456C250.306 278.655 250.652 278.928 250.908 279.274C251.167 279.621 251.303 280.014 251.317 280.455H250.294ZM257.947 280.455C257.896 280.023 257.688 279.688 257.325 279.449C256.961 279.21 256.515 279.091 255.987 279.091C255.6 279.091 255.262 279.153 254.972 279.278C254.685 279.403 254.461 279.575 254.299 279.794C254.14 280.013 254.06 280.261 254.06 280.54C254.06 280.773 254.116 280.973 254.227 281.141C254.34 281.305 254.485 281.443 254.661 281.554C254.837 281.662 255.022 281.751 255.215 281.822C255.408 281.891 255.586 281.946 255.748 281.989L256.634 282.227C256.862 282.287 257.114 282.369 257.393 282.474C257.674 282.58 257.942 282.723 258.198 282.905C258.457 283.084 258.67 283.314 258.837 283.595C259.005 283.876 259.089 284.222 259.089 284.631C259.089 285.102 258.965 285.528 258.718 285.909C258.474 286.29 258.116 286.592 257.644 286.817C257.175 287.041 256.606 287.153 255.935 287.153C255.31 287.153 254.769 287.053 254.312 286.851C253.857 286.649 253.499 286.368 253.238 286.007C252.979 285.646 252.833 285.227 252.799 284.75H253.89C253.918 285.08 254.029 285.352 254.222 285.568C254.418 285.781 254.665 285.94 254.964 286.045C255.265 286.148 255.589 286.199 255.935 286.199C256.339 286.199 256.701 286.134 257.022 286.003C257.343 285.869 257.597 285.685 257.785 285.449C257.972 285.21 258.066 284.932 258.066 284.614C258.066 284.324 257.985 284.088 257.823 283.906C257.661 283.724 257.448 283.577 257.184 283.463C256.92 283.349 256.634 283.25 256.327 283.165L255.254 282.858C254.572 282.662 254.032 282.382 253.634 282.018C253.237 281.655 253.038 281.179 253.038 280.591C253.038 280.102 253.17 279.676 253.434 279.312C253.701 278.946 254.059 278.662 254.508 278.46C254.96 278.256 255.464 278.153 256.021 278.153C256.583 278.153 257.083 278.254 257.521 278.456C257.958 278.655 258.305 278.928 258.56 279.274C258.819 279.621 258.955 280.014 258.969 280.455H257.947ZM264.201 278.273H265.463L268.429 285.517H268.531L271.497 278.273H272.758V287H271.77V280.369H271.684L268.957 287H268.002L265.275 280.369H265.19V287H264.201V278.273ZM274.877 287V278.273H280.144V279.21H275.934V282.159H279.871V283.097H275.934V286.062H280.212V287H274.877ZM286.021 285.884C285.81 285.884 285.63 285.808 285.479 285.658C285.329 285.507 285.254 285.327 285.254 285.116C285.254 284.906 285.329 284.726 285.479 284.575C285.63 284.425 285.81 284.349 286.021 284.349C286.231 284.349 286.411 284.425 286.562 284.575C286.712 284.726 286.788 284.906 286.788 285.116C286.788 285.256 286.752 285.384 286.681 285.5C286.613 285.616 286.521 285.71 286.404 285.781C286.29 285.849 286.163 285.884 286.021 285.884ZM286.021 281.469C285.81 281.469 285.63 281.393 285.479 281.243C285.329 281.092 285.254 280.912 285.254 280.702C285.254 280.491 285.329 280.311 285.479 280.161C285.63 280.01 285.81 279.935 286.021 279.935C286.231 279.935 286.411 280.01 286.562 280.161C286.712 280.311 286.788 280.491 286.788 280.702C286.788 280.841 286.752 280.969 286.681 281.085C286.613 281.202 286.521 281.295 286.404 281.366C286.29 281.435 286.163 281.469 286.021 281.469ZM291.422 287H288.729V278.273H291.541C292.388 278.273 293.112 278.447 293.714 278.797C294.317 279.143 294.778 279.642 295.099 280.293C295.42 280.94 295.581 281.716 295.581 282.619C295.581 283.528 295.419 284.311 295.095 284.967C294.771 285.621 294.3 286.124 293.68 286.476C293.061 286.825 292.308 287 291.422 287ZM289.786 286.062H291.354C292.075 286.062 292.673 285.923 293.148 285.645C293.622 285.366 293.976 284.97 294.209 284.456C294.442 283.942 294.558 283.33 294.558 282.619C294.558 281.915 294.443 281.308 294.213 280.8C293.983 280.288 293.639 279.896 293.182 279.624C292.724 279.348 292.155 279.21 291.473 279.21H289.786V286.062Z" fill="#CC0F12"/>
</svg>
