<svg width="519" height="304" viewBox="0 0 519 304" fill="none" xmlns="http://www.w3.org/2000/svg">
<rect x="34" y="54" width="450" height="250" fill="#F6C1CC"/>
<path d="M259.5 211L484.234 52.75H34.7664L259.5 211Z" fill="#100E0F" fill-opacity="0.24"/>
<path d="M482.654 53.25H36.3457L259.5 210.389L482.654 53.25Z" stroke="#470D0D" stroke-opacity="0.35"/>
<rect x="34" y="54" width="450" height="250" fill="#F6C1CC"/>
<path d="M259.5 211L484.234 52.75H34.7664L259.5 211Z" fill="#100E0F" fill-opacity="0.24"/>
<path d="M482.654 53.25H36.3457L259.5 210.389L482.654 53.25Z" stroke="#470D0D" stroke-opacity="0.35"/>
<g filter="url(#filter0_f_0_1)">
<path d="M259.5 214L484.234 55.75H34.7664L259.5 214Z" fill="#0B0100" fill-opacity="0.22"/>
</g>
<path d="M259.5 211L484.234 52.75H34.7664L259.5 211Z" fill="#8B1E2D"/>
<g filter="url(#filter1_d_0_1)">
<ellipse cx="259" cy="203" rx="36" ry="31" fill="#963A3A"/>
<path d="M258.544 187.024C258.466 187.024 258.19 187.024 257.717 186.974C257.195 186.92 256.884 186.625 256.667 186.438C256.482 186.278 256.408 186.026 256.467 185.738C256.491 185.619 256.643 185.575 256.938 185.549C258.332 185.429 259.054 185.674 259.706 185.624C259.977 185.604 260.084 185.476 260.165 185.375C260.316 185.185 260.324 184.999 260.383 184.887C260.541 184.585 261.979 184.774 262.794 184.972C263.589 185.166 263.686 185.773 263.746 186.047C263.836 186.465 263.648 186.798 263.412 186.911C263.023 187.095 262.384 187.123 261.77 187.236C261.254 187.331 260.369 187.423 259.615 187.523C259.229 187.575 258.981 187.873 258.508 188.023C257.198 188.439 256.175 187.801 255.461 187.525C255.103 187.387 254.866 187.175 254.649 187.013C254.426 186.846 254.39 186.501 254.429 186.114C254.48 185.61 255.297 185.3 255.969 185.025C257.175 184.532 257.789 184.499 258.324 184.461C259.019 184.412 259.728 184.349 260.223 184.311C260.81 184.266 261.271 184.124 263.933 184.136C264.693 184.139 264.952 184.423 265.169 184.61C265.511 184.904 265.546 185.866 265.408 186.522C265.305 187.016 264.599 187.273 264.065 187.473C263.333 187.747 262.741 187.898 262.166 188.073C261.426 188.298 260.685 188.398 259.892 188.511C258.924 188.649 258.428 188.648 258.011 188.748C257.677 188.828 257.951 189.198 258.009 189.311C258.143 189.567 260.073 189.424 261.252 189.287C261.784 189.225 262.221 188.95 262.696 188.75C263.171 188.549 263.645 188.35 264.12 188.199C264.652 188.031 265.147 187.874 265.663 187.712C266.147 187.56 266.612 187.3 267.146 187.025C267.552 186.816 267.445 186.425 267.662 185.988C268 185.305 267.644 184.325 267.347 184.025C267.276 183.953 267.248 183.875 267.326 183.8C267.523 183.608 267.919 183.549 268.116 183.474C268.313 183.4 268.276 183.175 268.197 182.988C268.006 182.531 266.973 182.599 266.163 182.474C265.445 182.364 262.84 182.374 261.021 182.436C259.101 182.502 257.917 182.747 256.846 182.973C255.989 183.154 254.908 183.448 254.372 183.561C253.825 183.677 253.168 183.698 252.573 183.935C251.693 184.284 251.898 184.896 251.957 185.333C252.014 185.758 252.885 185.798 253.142 185.923C253.266 185.983 253.282 186.097 253.243 186.197C253.067 186.656 252.218 187.195 251.8 187.685C251.532 187.998 251.542 188.372 251.443 188.797C251.363 189.141 251.462 189.423 251.581 189.585C251.905 190.03 252.686 190.322 253.339 190.523C254.427 190.859 255.962 190.624 256.881 190.549C257.405 190.507 258.027 190.424 258.581 190.337C259.279 190.226 259.847 190.598 260.362 190.773C260.703 190.889 261.113 190.949 262.056 190.986C265.735 191.132 266.769 190.724 267.62 190.413C268.252 190.182 268.551 189.751 268.769 189.425C269.043 189.017 269.776 188.551 270.213 188.114C271.005 187.32 270.846 186.875 270.631 186.438C270.512 186.197 270.215 186.025 270.116 185.825C269.935 185.462 270.45 185.15 270.846 184.725C271.134 184.416 271.243 183.952 271.341 183.538C271.403 183.279 271.244 183.025 271.027 182.838C270.694 182.551 270.099 182.326 269.524 182.124C268.78 181.863 268.278 181.799 267.685 181.711C267.103 181.625 266.617 181.574 265.826 181.524C265.078 181.476 264.402 181.274 263.335 181.112C261.908 180.895 260.051 181.073 259.318 181.248C258.455 181.454 257.953 181.498 257.379 181.611C257.245 181.637 257.122 181.624 257.023 181.587C256.807 181.506 256.764 181.324 256.705 181.187C256.551 180.826 255.069 181.123 254.156 181.335C253.201 181.558 252.375 181.873 251.25 182.222C250.287 182.521 249.883 182.848 249.526 183.135C249.131 183.452 248.933 183.946 248.675 184.41C248.404 184.895 248.338 185.545 248.239 186.258C248.031 187.767 248.338 188.272 248.456 188.66C248.561 189.006 248.85 189.347 249.167 189.672C249.549 190.064 249.84 190.322 250.196 190.623C250.485 190.868 250.946 191.122 251.54 191.423C252.193 191.754 253.358 191.798 254.308 191.836C255.026 191.865 255.969 191.948 257.332 191.961C258.113 191.969 258.739 191.849 260.613 191.799C261.932 191.764 262.774 191.425 263.427 191.299C264.108 191.168 264.751 191.099 265.721 190.937C266.46 190.813 267.087 190.649 267.562 190.475C268.038 190.3 268.589 190.199 269.105 190.025C269.224 189.974 269.341 189.925 269.441 189.862C269.541 189.8 269.619 189.725 269.819 189.574" stroke="#DDB4B5" stroke-width="2" stroke-linecap="round"/>
<path d="M269.819 189.649C269.819 189.923 269.897 190.322 269.957 191.133C270.021 191.995 269.978 193.097 269.918 193.597C269.854 194.124 269.74 194.672 269.68 195.222C269.633 195.651 269.503 196.196 269.325 196.56C269.266 196.648 269.187 196.747 269.127 196.835C269.067 196.923 269.028 196.997 268.988 197.074" stroke="#DDB4B5" stroke-width="2" stroke-linecap="round"/>
<path d="M248.517 186.145C248.419 186.535 248.387 186.782 248.338 187.465C248.295 188.066 248.322 189.187 248.354 189.896C248.418 191.308 248.581 191.839 248.727 192.758C248.841 193.472 248.905 194.695 248.971 195.386C249.069 196.407 249.167 196.815 249.216 197.995C249.247 198.728 249.362 199.633 249.428 200.485C249.467 201.004 250.11 201.258 250.792 201.607C251.295 201.865 251.865 202.122 252.484 202.379C252.913 202.557 253.653 202.677 254.9 202.77C258.125 203.009 258.925 202.637 259.707 202.596C260.822 202.537 262.111 202.411 262.783 202.349C263.51 202.282 265.231 201.838 266.41 201.404C267.146 201.134 267.776 200.439 268.364 199.883C268.714 199.552 268.788 199.225 268.837 198.947C268.917 198.498 269.243 197.891 269.325 197.395C269.341 197.312 269.373 197.251 269.422 197.189C269.471 197.127 269.535 197.065 269.602 197.003" stroke="#DDB4B5" stroke-width="2" stroke-linecap="round"/>
<path d="M269.797 189.538C270.023 189.252 270.285 188.758 270.382 188.48C270.577 188.161 270.838 187.874 271.065 187.627C271.13 187.565 271.195 187.504 271.359 187.317" stroke="#DDB4B5" stroke-width="2" stroke-linecap="round"/>
<path d="M271.652 187.132C271.846 186.948 272.171 186.578 272.335 186.229C272.538 185.793 272.823 185.14 272.904 184.687C273.054 183.848 272.759 183.555 272.547 183.298C272.269 182.96 271.816 182.63 271.458 182.332C271.296 182.219 271.039 182.056 270.745 181.891C270.451 181.726 270.129 181.563 269.797 181.395" stroke="#DDB4B5" stroke-width="2" stroke-linecap="round"/>
<path d="M269.407 181.272C269.05 181.251 268.401 181.129 267.831 181.035C267.245 180.94 264.84 180.963 263.113 180.861C262.509 180.825 261.925 180.778 261.177 180.676C260.596 180.596 259.875 180.531 259.354 180.47C258.77 180.401 257.796 180.571 257.158 180.778C257.011 180.819 256.818 180.86 256.622 180.901C256.426 180.942 256.232 180.983 256.033 181.025" stroke="#DDB4B5" stroke-width="2" stroke-linecap="round"/>
<path d="M248.614 191.697C249.036 191.861 249.491 191.985 249.995 192.19C251.163 192.665 252.712 193.423 253.184 193.609C253.61 193.777 253.981 194 255.037 194.635C255.682 195.024 256.227 195.376 257.087 195.952C257.589 196.287 258.017 196.631 258.261 196.929C258.753 197.53 259.221 197.803 259.643 198.204C260.193 198.725 260.262 199.139 260.409 199.459C260.542 199.747 260.524 200.167 260.605 200.741C260.621 201.088 260.621 201.719 260.605 201.994C260.589 202.268 260.557 202.166 260.524 202.061" stroke="#DDB4B5" stroke-width="2" stroke-linecap="round"/>
<path d="M260.231 197.99C260.652 197.312 261.107 196.861 261.53 196.5C262.167 195.958 263.06 195.564 263.58 195.276C264.166 194.953 264.621 194.885 265.207 194.669C265.867 194.426 266.476 194.248 266.948 194.104C267.409 193.964 267.843 193.775 268.331 193.651C269.013 193.405 269.698 193.219 269.893 193.178C269.991 193.157 270.088 193.137 270.187 193.116" stroke="#DDB4B5" stroke-width="2" stroke-linecap="round"/>
<path d="M259.14 202.865C258.815 203.358 258.556 203.645 258.328 204.036C258.034 204.537 257.42 205.878 257.172 206.637C257.055 206.994 257.026 207.285 256.977 207.553C256.808 208.467 256.959 210.122 257.009 210.605C257.048 210.992 257.188 211.315 257.269 211.562C257.349 211.806 257.383 212.137 257.335 212.405C257.275 212.734 256.311 211.975 255.823 211.76C255.292 211.525 254.587 211.461 254.131 211.43C253.537 211.389 253.026 211.276 250.998 211.275C249.953 211.275 249.576 211.419 249.088 211.491C248.609 211.562 248.145 211.563 247.672 211.645C247.571 211.663 247.557 211.747 247.637 211.84C248.035 212.3 248.596 212.385 249.003 212.55C249.445 212.729 249.865 212.776 250.823 212.951C251.316 213.041 252.042 213.044 252.728 213.146C253.38 213.188 255.187 213.229 256.308 213.168C256.406 213.147 256.503 213.127 256.797 213.044" stroke="#FF0004" stroke-width="2" stroke-linecap="round"/>
<path d="M260.8 202.927C260.476 203.398 260.214 203.851 259.777 205.153C259.563 205.789 259.466 206.112 259.271 206.483C259.063 206.877 259.043 207.551 258.881 208.015C258.784 208.29 258.75 208.784 258.669 209.472C258.45 211.331 258.814 211.624 258.944 211.871C259.152 212.265 259.562 212.959 259.725 213.29C259.848 213.538 260.05 213.783 260.132 214.03C260.223 214.301 260.312 214.585 260.409 214.832C260.515 215.104 260.604 215.59 260.685 216.452C260.827 217.957 260.67 219.047 260.621 219.201C260.533 219.478 260.345 219.808 260.295 220.086C260.241 220.391 260.052 220.63 259.857 220.878C259.81 220.936 259.824 221.001 259.888 221.012C260.319 221.086 260.765 220.838 261.189 220.704C261.562 220.586 261.969 220.489 262.441 220.385C262.874 220.29 264.689 220.262 265.809 220.313C266.367 220.338 267.074 220.447 267.858 220.498C268.605 220.547 269.03 220.57 269.371 220.621C269.509 220.641 269.487 220.774 269.455 220.857C269.341 221.152 268.839 221.411 268.415 221.557C268.017 221.693 267.473 221.783 266.935 221.814C266.625 221.832 265.076 221.865 262.929 221.855C261.81 221.804 261.29 221.763 260.754 221.691C260.511 221.68 260.124 221.68 259.726 221.68" stroke="#FF0004" stroke-width="2" stroke-linecap="round"/>
<path d="M257.09 212.92C257.09 213.064 257.155 213.392 257.285 213.66C257.422 213.941 257.448 214.276 257.497 214.585C257.55 214.917 257.643 215.202 257.757 215.52C257.884 215.873 257.871 216.168 257.952 216.843C258.231 219.164 257.807 219.499 257.676 219.777C257.539 220.07 257.514 220.322 257.319 220.63C257.124 220.939 257.123 221.247 257.058 221.505C256.974 221.836 256.831 222.111 256.781 222.358C256.723 222.648 256.635 223.015 256.521 223.283C256.472 223.571 256.375 223.859 256.326 224.359C256.309 224.778 256.309 225.531 256.309 226.307" stroke="#FF0004" stroke-width="2" stroke-linecap="round"/>
<path d="M260.019 221.619C259.954 221.619 259.824 221.598 259.63 221.578C259.128 221.524 258.783 222.049 258.653 222.307C258.496 222.616 258.49 222.913 258.441 223.989C258.411 224.641 258.295 225.298 258.246 226.18C258.132 226.574 258.066 227.024 257.985 227.62C257.969 227.906 257.969 228.395 257.871 228.836" stroke="#FF0004" stroke-width="2" stroke-linecap="round"/>
<path d="M256.7 226.184C256.602 226.92 256.667 227.991 256.684 229.058C256.691 229.52 256.44 229.76 256.293 229.977C256.12 230.232 257.381 229.783 257.772 229.7C258.163 229.618 258.456 229.556 258.602 229.464C258.652 229.271 258.62 229.084 258.571 228.94C258.555 228.858 258.555 228.756 258.555 228.651" stroke="#FF0004" stroke-width="2" stroke-linecap="round"/>
<path d="M259.81 221.268C259.912 221.268 260.067 221.276 260.478 221.289C261.298 221.313 261.878 221.285 262 221.272C262.314 221.241 262.524 221.244 262.776 221.223C262.976 221.207 263.183 221.179 263.377 221.15C263.58 221.12 263.893 221.121 264.153 221.101C264.346 221.086 264.527 221.056 264.728 221.044C264.905 221.033 265.109 221.007 265.374 220.995C265.577 220.985 265.781 220.958 266.136 220.946C266.221 220.942 266.272 220.933 266.344 220.929C266.415 220.925 266.504 220.925 266.674 220.901" stroke="#DDC61B" stroke-width="2" stroke-linecap="round"/>
<path d="M257.367 212.568C257.162 212.584 257.005 212.6 256.678 212.612C255.904 212.641 255.325 212.609 255.183 212.596C254.836 212.566 254.012 212.551 253.496 212.523C253.28 212.511 253.101 212.453 252.875 212.417C252.641 212.379 252.416 212.347 252.235 212.302C251.985 212.241 251.744 212.224 251.306 212.135C250.973 212.067 250.736 212.045 250.509 212.008C250.301 211.974 250.012 211.955 249.792 211.935C249.533 211.914 249.404 211.881 249.301 211.877C249.249 211.873 249.198 211.865 249.067 211.857" stroke="#DDC61B" stroke-width="2" stroke-linecap="round"/>
<path d="M253.76 212.421C253.606 212.348 253.218 212.135 253.024 212.025C252.946 211.964 252.855 211.898 252.765 211.837C252.726 211.808 252.7 211.784 252.674 211.734" stroke="#DDC61B" stroke-width="2" stroke-linecap="round"/>
<path d="M251.743 212.273C251.24 212.273 250.93 212.29 250.736 212.306C250.684 212.314 250.632 212.33 250.549 212.347C250.465 212.363 250.349 212.379 250.192 212.396" stroke="#DDC61B" stroke-width="2" stroke-linecap="round"/>
<path d="M263.572 221.121C264.036 221.04 264.269 220.926 264.469 220.852C264.681 220.763 264.851 220.696 264.948 220.66C265.006 220.631 265.083 220.583 265.239 220.508" stroke="#DDC61B" stroke-width="2" stroke-linecap="round"/>
<path d="M262.369 221.219C262.537 221.276 263.127 221.422 263.654 221.595C263.726 221.619 263.765 221.628 263.804 221.64C263.843 221.652 263.881 221.668 263.921 221.685" stroke="#DDC61B" stroke-width="2" stroke-linecap="round"/>
</g>
<path d="M194.057 297V288.273H197.006C197.69 288.273 198.25 288.396 198.685 288.643C199.122 288.888 199.446 289.219 199.656 289.636C199.866 290.054 199.972 290.52 199.972 291.034C199.972 291.548 199.866 292.016 199.656 292.436C199.449 292.857 199.128 293.192 198.693 293.442C198.259 293.689 197.702 293.812 197.023 293.812H194.909V292.875H196.989C197.457 292.875 197.834 292.794 198.118 292.632C198.402 292.47 198.608 292.251 198.736 291.976C198.866 291.697 198.932 291.384 198.932 291.034C198.932 290.685 198.866 290.372 198.736 290.097C198.608 289.821 198.401 289.605 198.114 289.449C197.827 289.29 197.446 289.21 196.972 289.21H195.114V297H194.057ZM201.674 297V288.273H204.623C205.305 288.273 205.864 288.389 206.302 288.622C206.739 288.852 207.063 289.169 207.273 289.572C207.484 289.976 207.589 290.435 207.589 290.949C207.589 291.463 207.484 291.919 207.273 292.317C207.063 292.714 206.741 293.027 206.306 293.254C205.871 293.479 205.316 293.591 204.64 293.591H202.254V292.636H204.606C205.072 292.636 205.447 292.568 205.731 292.432C206.018 292.295 206.225 292.102 206.353 291.852C206.484 291.599 206.549 291.298 206.549 290.949C206.549 290.599 206.484 290.294 206.353 290.033C206.222 289.771 206.013 289.57 205.727 289.428C205.44 289.283 205.06 289.21 204.589 289.21H202.731V297H201.674ZM205.782 293.08L207.93 297H206.702L204.589 293.08H205.782ZM209.35 297V288.273H214.617V289.21H210.407V292.159H214.344V293.097H210.407V296.062H214.685V297H209.35ZM221.294 290.455C221.243 290.023 221.036 289.688 220.672 289.449C220.309 289.21 219.863 289.091 219.334 289.091C218.948 289.091 218.61 289.153 218.32 289.278C218.033 289.403 217.809 289.575 217.647 289.794C217.488 290.013 217.408 290.261 217.408 290.54C217.408 290.773 217.463 290.973 217.574 291.141C217.688 291.305 217.833 291.443 218.009 291.554C218.185 291.662 218.37 291.751 218.563 291.822C218.756 291.891 218.934 291.946 219.096 291.989L219.982 292.227C220.209 292.287 220.462 292.369 220.74 292.474C221.022 292.58 221.29 292.723 221.546 292.905C221.804 293.084 222.017 293.314 222.185 293.595C222.353 293.876 222.436 294.222 222.436 294.631C222.436 295.102 222.313 295.528 222.066 295.909C221.821 296.29 221.463 296.592 220.992 296.817C220.523 297.041 219.953 297.153 219.283 297.153C218.658 297.153 218.117 297.053 217.659 296.851C217.205 296.649 216.847 296.368 216.586 296.007C216.327 295.646 216.181 295.227 216.147 294.75H217.238C217.266 295.08 217.377 295.352 217.57 295.568C217.766 295.781 218.013 295.94 218.311 296.045C218.613 296.148 218.936 296.199 219.283 296.199C219.686 296.199 220.049 296.134 220.37 296.003C220.691 295.869 220.945 295.685 221.132 295.449C221.32 295.21 221.414 294.932 221.414 294.614C221.414 294.324 221.333 294.088 221.171 293.906C221.009 293.724 220.796 293.577 220.532 293.463C220.267 293.349 219.982 293.25 219.675 293.165L218.601 292.858C217.919 292.662 217.38 292.382 216.982 292.018C216.584 291.655 216.385 291.179 216.385 290.591C216.385 290.102 216.517 289.676 216.782 289.312C217.049 288.946 217.407 288.662 217.855 288.46C218.307 288.256 218.811 288.153 219.368 288.153C219.931 288.153 220.431 288.254 220.868 288.456C221.306 288.655 221.652 288.928 221.908 289.274C222.167 289.621 222.303 290.014 222.317 290.455H221.294ZM228.947 290.455C228.896 290.023 228.688 289.688 228.325 289.449C227.961 289.21 227.515 289.091 226.987 289.091C226.6 289.091 226.262 289.153 225.972 289.278C225.685 289.403 225.461 289.575 225.299 289.794C225.14 290.013 225.06 290.261 225.06 290.54C225.06 290.773 225.116 290.973 225.227 291.141C225.34 291.305 225.485 291.443 225.661 291.554C225.837 291.662 226.022 291.751 226.215 291.822C226.408 291.891 226.586 291.946 226.748 291.989L227.634 292.227C227.862 292.287 228.114 292.369 228.393 292.474C228.674 292.58 228.942 292.723 229.198 292.905C229.457 293.084 229.67 293.314 229.837 293.595C230.005 293.876 230.089 294.222 230.089 294.631C230.089 295.102 229.965 295.528 229.718 295.909C229.474 296.29 229.116 296.592 228.644 296.817C228.175 297.041 227.606 297.153 226.935 297.153C226.31 297.153 225.769 297.053 225.312 296.851C224.857 296.649 224.499 296.368 224.238 296.007C223.979 295.646 223.833 295.227 223.799 294.75H224.89C224.918 295.08 225.029 295.352 225.222 295.568C225.418 295.781 225.665 295.94 225.964 296.045C226.265 296.148 226.589 296.199 226.935 296.199C227.339 296.199 227.701 296.134 228.022 296.003C228.343 295.869 228.597 295.685 228.785 295.449C228.972 295.21 229.066 294.932 229.066 294.614C229.066 294.324 228.985 294.088 228.823 293.906C228.661 293.724 228.448 293.577 228.184 293.463C227.92 293.349 227.634 293.25 227.327 293.165L226.254 292.858C225.572 292.662 225.032 292.382 224.634 292.018C224.237 291.655 224.038 291.179 224.038 290.591C224.038 290.102 224.17 289.676 224.434 289.312C224.701 288.946 225.059 288.662 225.508 288.46C225.96 288.256 226.464 288.153 227.021 288.153C227.583 288.153 228.083 288.254 228.521 288.456C228.958 288.655 229.305 288.928 229.56 289.274C229.819 289.621 229.955 290.014 229.969 290.455H228.947ZM234.724 289.21V288.273H241.27V289.21H238.525V297H237.468V289.21H234.724ZM242.901 297V288.273H243.957V292.159H248.611V288.273H249.668V297H248.611V293.097H243.957V297H242.901ZM251.783 297V288.273H257.05V289.21H252.84V292.159H256.778V293.097H252.84V296.062H257.119V297H251.783ZM262.33 297V288.273H265.279C265.961 288.273 266.521 288.389 266.958 288.622C267.396 288.852 267.719 289.169 267.93 289.572C268.14 289.976 268.245 290.435 268.245 290.949C268.245 291.463 268.14 291.919 267.93 292.317C267.719 292.714 267.397 293.027 266.962 293.254C266.528 293.479 265.972 293.591 265.296 293.591H262.91V292.636H265.262C265.728 292.636 266.103 292.568 266.387 292.432C266.674 292.295 266.881 292.102 267.009 291.852C267.14 291.599 267.205 291.298 267.205 290.949C267.205 290.599 267.14 290.294 267.009 290.033C266.879 289.771 266.67 289.57 266.383 289.428C266.096 289.283 265.717 289.21 265.245 289.21H263.387V297H262.33ZM266.438 293.08L268.586 297H267.359L265.245 293.08H266.438ZM277.37 292.636C277.37 293.557 277.203 294.352 276.871 295.023C276.539 295.693 276.083 296.21 275.503 296.574C274.924 296.938 274.262 297.119 273.517 297.119C272.773 297.119 272.111 296.938 271.532 296.574C270.952 296.21 270.496 295.693 270.164 295.023C269.831 294.352 269.665 293.557 269.665 292.636C269.665 291.716 269.831 290.92 270.164 290.25C270.496 289.58 270.952 289.062 271.532 288.699C272.111 288.335 272.773 288.153 273.517 288.153C274.262 288.153 274.924 288.335 275.503 288.699C276.083 289.062 276.539 289.58 276.871 290.25C277.203 290.92 277.37 291.716 277.37 292.636ZM276.347 292.636C276.347 291.881 276.221 291.243 275.968 290.723C275.718 290.203 275.378 289.81 274.949 289.543C274.523 289.276 274.046 289.142 273.517 289.142C272.989 289.142 272.51 289.276 272.081 289.543C271.655 289.81 271.316 290.203 271.063 290.723C270.813 291.243 270.688 291.881 270.688 292.636C270.688 293.392 270.813 294.03 271.063 294.55C271.316 295.07 271.655 295.463 272.081 295.73C272.51 295.997 272.989 296.131 273.517 296.131C274.046 296.131 274.523 295.997 274.949 295.73C275.378 295.463 275.718 295.07 275.968 294.55C276.221 294.03 276.347 293.392 276.347 292.636ZM283.919 290.455C283.868 290.023 283.661 289.688 283.297 289.449C282.934 289.21 282.488 289.091 281.959 289.091C281.573 289.091 281.235 289.153 280.945 289.278C280.658 289.403 280.434 289.575 280.272 289.794C280.113 290.013 280.033 290.261 280.033 290.54C280.033 290.773 280.088 290.973 280.199 291.141C280.313 291.305 280.458 291.443 280.634 291.554C280.81 291.662 280.995 291.751 281.188 291.822C281.381 291.891 281.559 291.946 281.721 291.989L282.607 292.227C282.834 292.287 283.087 292.369 283.365 292.474C283.647 292.58 283.915 292.723 284.171 292.905C284.429 293.084 284.642 293.314 284.81 293.595C284.978 293.876 285.061 294.222 285.061 294.631C285.061 295.102 284.938 295.528 284.691 295.909C284.446 296.29 284.088 296.592 283.617 296.817C283.148 297.041 282.578 297.153 281.908 297.153C281.283 297.153 280.742 297.053 280.284 296.851C279.83 296.649 279.472 296.368 279.211 296.007C278.952 295.646 278.806 295.227 278.772 294.75H279.863C279.891 295.08 280.002 295.352 280.195 295.568C280.391 295.781 280.638 295.94 280.936 296.045C281.238 296.148 281.561 296.199 281.908 296.199C282.311 296.199 282.674 296.134 282.995 296.003C283.316 295.869 283.57 295.685 283.757 295.449C283.945 295.21 284.039 294.932 284.039 294.614C284.039 294.324 283.958 294.088 283.796 293.906C283.634 293.724 283.421 293.577 283.157 293.463C282.892 293.349 282.607 293.25 282.3 293.165L281.226 292.858C280.544 292.662 280.005 292.382 279.607 292.018C279.209 291.655 279.01 291.179 279.01 290.591C279.01 290.102 279.142 289.676 279.407 289.312C279.674 288.946 280.032 288.662 280.48 288.46C280.932 288.256 281.436 288.153 281.993 288.153C282.556 288.153 283.056 288.254 283.493 288.456C283.931 288.655 284.277 288.928 284.533 289.274C284.792 289.621 284.928 290.014 284.942 290.455H283.919ZM286.799 297V288.273H292.066V289.21H287.856V292.159H291.793V293.097H287.856V296.062H292.134V297H286.799ZM297.499 293.114V292.432L302.988 289.636V290.727L298.778 292.756L298.812 292.688V292.858L298.778 292.79L302.988 294.818V295.909L297.499 293.114ZM308.051 297.119C307.489 297.119 306.988 297.023 306.547 296.83C306.11 296.636 305.762 296.368 305.503 296.024C305.248 295.678 305.108 295.276 305.086 294.818H306.159C306.182 295.099 306.279 295.342 306.449 295.547C306.62 295.749 306.843 295.905 307.118 296.016C307.394 296.126 307.699 296.182 308.034 296.182C308.409 296.182 308.742 296.116 309.032 295.986C309.321 295.855 309.549 295.673 309.713 295.44C309.878 295.207 309.961 294.938 309.961 294.631C309.961 294.31 309.881 294.027 309.722 293.783C309.563 293.536 309.33 293.342 309.023 293.203C308.716 293.064 308.341 292.994 307.898 292.994H307.199V292.057H307.898C308.245 292.057 308.549 291.994 308.81 291.869C309.074 291.744 309.28 291.568 309.428 291.341C309.578 291.114 309.654 290.847 309.654 290.54C309.654 290.244 309.588 289.987 309.458 289.768C309.327 289.55 309.142 289.379 308.904 289.257C308.668 289.135 308.39 289.074 308.069 289.074C307.767 289.074 307.483 289.129 307.216 289.24C306.952 289.348 306.736 289.506 306.569 289.713C306.401 289.918 306.31 290.165 306.296 290.455H305.273C305.29 289.997 305.428 289.597 305.686 289.253C305.945 288.906 306.283 288.636 306.701 288.443C307.121 288.25 307.583 288.153 308.086 288.153C308.625 288.153 309.088 288.263 309.475 288.482C309.861 288.697 310.158 288.983 310.365 289.338C310.573 289.693 310.676 290.077 310.676 290.489C310.676 290.98 310.547 291.399 310.289 291.746C310.033 292.092 309.685 292.332 309.245 292.466V292.534C309.796 292.625 310.226 292.859 310.536 293.237C310.846 293.612 311 294.077 311 294.631C311 295.105 310.871 295.531 310.613 295.909C310.357 296.284 310.007 296.58 309.564 296.795C309.121 297.011 308.617 297.119 308.051 297.119ZM316.868 295.884C316.658 295.884 316.478 295.808 316.327 295.658C316.176 295.507 316.101 295.327 316.101 295.116C316.101 294.906 316.176 294.726 316.327 294.575C316.478 294.425 316.658 294.349 316.868 294.349C317.078 294.349 317.259 294.425 317.409 294.575C317.56 294.726 317.635 294.906 317.635 295.116C317.635 295.256 317.6 295.384 317.529 295.5C317.461 295.616 317.368 295.71 317.252 295.781C317.138 295.849 317.01 295.884 316.868 295.884ZM316.868 291.469C316.658 291.469 316.478 291.393 316.327 291.243C316.176 291.092 316.101 290.912 316.101 290.702C316.101 290.491 316.176 290.311 316.327 290.161C316.478 290.01 316.658 289.935 316.868 289.935C317.078 289.935 317.259 290.01 317.409 290.161C317.56 290.311 317.635 290.491 317.635 290.702C317.635 290.841 317.6 290.969 317.529 291.085C317.461 291.202 317.368 291.295 317.252 291.366C317.138 291.435 317.01 291.469 316.868 291.469ZM321.11 293.182L321.179 291.307L319.593 292.312L319.184 291.597L320.855 290.727L319.184 289.858L319.593 289.142L321.179 290.148L321.11 288.273H321.929L321.86 290.148L323.446 289.142L323.855 289.858L322.184 290.727L323.855 291.597L323.446 292.312L321.86 291.307L321.929 293.182H321.11Z" fill="#8B1E2D"/>
<defs>
<filter id="filter0_f_0_1" x="30.7664" y="51.75" width="457.467" height="166.25" filterUnits="userSpaceOnUse" color-interpolation-filters="sRGB">
<feFlood flood-opacity="0" result="BackgroundImageFix"/>
<feBlend mode="normal" in="SourceGraphic" in2="BackgroundImageFix" result="shape"/>
<feGaussianBlur stdDeviation="2" result="effect1_foregroundBlur_0_1"/>
</filter>
<filter id="filter1_d_0_1" x="219" y="172" width="80" height="70" filterUnits="userSpaceOnUse" color-interpolation-filters="sRGB">
<feFlood flood-opacity="0" result="BackgroundImageFix"/>
<feColorMatrix in="SourceAlpha" type="matrix" values="0 0 0 0 0 0 0 0 0 0 0 0 0 0 0 0 0 0 127 0" result="hardAlpha"/>
<feOffset dy="4"/>
<feGaussianBlur stdDeviation="2"/>
<feComposite in2="hardAlpha" operator="out"/>
<feColorMatrix type="matrix" values="0 0 0 0 0 0 0 0 0 0 0 0 0 0 0 0 0 0 0.25 0"/>
<feBlend mode="normal" in2="BackgroundImageFix" result="effect1_dropShadow_0_1"/>
<feBlend mode="normal" in="SourceGraphic" in2="effect1_dropShadow_0_1" result="shape"/>
</filter>
</defs>
</svg>
