<svg width="687" height="258" viewBox="0 0 687 258" fill="none" xmlns="http://www.w3.org/2000/svg">
<g filter="url(#filter0_d_27_76)">
<rect x="118.5" y="0.5" width="449" height="249" rx="115.5" fill="#F6C1CC"/>
<rect x="118.5" y="0.5" width="449" height="249" rx="115.5" stroke="black"/>
<rect x="118.5" y="0.5" width="449" height="249" rx="115.5" stroke="black" stroke-opacity="0.2"/>
</g>
<path d="M304.744 171.952C300.968 171.952 297.736 171.152 295.048 169.552C292.424 167.952 291.112 165.648 291.112 162.64C291.112 160.72 291.688 159.024 292.84 157.552C293.992 156.08 295.688 155.056 297.928 154.48C297.608 155.952 297.352 157.136 297.16 158.032C297.032 158.928 296.968 159.792 296.968 160.624C296.968 163.184 297.672 165.2 299.08 166.672C300.488 168.144 302.664 168.88 305.608 168.88C307.912 168.88 309.96 168.432 311.752 167.536C313.544 166.64 315.112 165.392 316.456 163.792C317.864 162.192 319.048 160.4 320.008 158.416C321.032 156.496 321.896 154.48 322.6 152.368C323.368 150.192 323.976 148.112 324.424 146.128C325.256 142.672 325.96 139.056 326.536 135.28C327.176 131.504 327.912 128.144 328.744 125.2C326.184 129.488 323.24 133.008 319.912 135.76C316.648 138.512 312.808 139.888 308.392 139.888C304.296 139.888 301.384 138.736 299.656 136.432C297.928 134.128 297.064 131.28 297.064 127.888C297.064 125.456 297.384 122.832 298.024 120.016C298.664 117.2 299.4 114.32 300.232 111.376C301.064 108.432 301.768 105.616 302.344 102.928C302.984 100.176 303.304 97.712 303.304 95.536C303.304 93.616 302.92 91.952 302.152 90.544C301.448 89.136 300.072 88.432 298.024 88.432C296.296 88.432 294.792 88.976 293.512 90.064C292.296 91.088 291.272 92.432 290.44 94.096C289.608 95.696 288.968 97.424 288.52 99.28C288.136 101.072 287.944 102.8 287.944 104.464C287.944 105.424 288.008 106.288 288.136 107.056C288.328 107.76 288.616 108.592 289 109.552C286.12 109.552 284.072 108.88 282.856 107.536C281.704 106.128 281.128 104.432 281.128 102.448C281.128 100.528 281.608 98.544 282.568 96.496C283.528 94.384 284.872 92.464 286.6 90.736C288.328 89.008 290.344 87.6 292.648 86.512C295.016 85.424 297.512 84.88 300.136 84.88C302.696 84.88 304.744 85.36 306.28 86.32C307.88 87.28 309.064 88.56 309.832 90.16C310.6 91.696 310.984 93.36 310.984 95.152C310.984 96.688 310.696 98.576 310.12 100.816C309.608 102.992 308.936 105.648 308.104 108.784C307.208 111.92 306.408 114.96 305.704 117.904C305.064 120.784 304.744 123.504 304.744 126.064C304.744 128.752 305.256 130.96 306.28 132.688C307.304 134.352 309.032 135.184 311.464 135.184C313.704 135.184 315.784 134.544 317.704 133.264C319.688 131.92 321.544 130.16 323.272 127.984C325 125.744 326.568 123.248 327.976 120.496C329.384 117.68 330.6 114.8 331.624 111.856C332.456 109.04 333.32 106.096 334.216 103.024C335.112 99.888 336.04 96.944 337 94.192C338.024 91.44 339.08 89.2 340.168 87.472C341.256 85.744 342.376 84.88 343.528 84.88C344.232 84.88 345.16 85.2 346.312 85.84C347.528 86.416 348.648 87.248 349.672 88.336C348.328 90.448 347.144 92.464 346.12 94.384C345.16 96.304 344.232 98.384 343.336 100.624C342.504 102.864 341.64 105.52 340.744 108.592C339.848 111.6 338.856 115.28 337.768 119.632C336.68 123.984 335.368 129.264 333.832 135.472C333 138.736 332.072 142.096 331.048 145.552C330.024 149.008 328.776 152.304 327.304 155.44C325.896 158.576 324.168 161.392 322.12 163.888C320.072 166.384 317.608 168.336 314.728 169.744C311.912 171.216 308.584 171.952 304.744 171.952ZM353.598 158.224C349.566 158.224 346.494 157.136 344.382 154.96C342.27 152.784 341.214 150.064 341.214 146.8C341.214 143.92 341.918 140.912 343.326 137.776C344.798 134.576 346.75 131.6 349.182 128.848C351.614 126.032 354.27 123.76 357.15 122.032C360.094 120.24 363.006 119.344 365.886 119.344C367.486 119.344 368.99 119.76 370.398 120.592C371.87 121.424 372.606 123.088 372.606 125.584C372.606 128.016 371.87 130.32 370.398 132.496C368.99 134.608 367.102 136.496 364.734 138.16C362.43 139.824 359.838 141.2 356.958 142.288C354.142 143.312 351.326 143.952 348.51 144.208C348.446 144.592 348.382 144.976 348.318 145.36C348.254 145.744 348.222 146.256 348.222 146.896C348.222 147.408 348.286 148.112 348.414 149.008C348.606 149.84 348.926 150.704 349.374 151.6C349.886 152.432 350.654 153.136 351.678 153.712C352.702 154.288 354.046 154.576 355.71 154.576C358.398 154.576 361.086 153.808 363.774 152.272C366.526 150.736 369.086 148.72 371.454 146.224C373.822 143.664 375.806 140.848 377.406 137.776L379.038 139.12C377.31 142.96 375.102 146.32 372.414 149.2C369.726 152.016 366.75 154.224 363.486 155.824C360.286 157.424 356.99 158.224 353.598 158.224ZM349.374 141.232C351.038 140.912 352.926 140.272 355.038 139.312C357.15 138.288 359.166 137.04 361.086 135.568C363.006 134.032 364.574 132.368 365.79 130.576C367.07 128.784 367.71 126.96 367.71 125.104C367.71 124.4 367.582 123.888 367.326 123.568C367.07 123.248 366.622 123.088 365.982 123.088C364.446 123.088 362.846 123.664 361.182 124.816C359.582 125.904 357.982 127.344 356.382 129.136C354.846 130.864 353.47 132.816 352.254 134.992C351.038 137.104 350.078 139.184 349.374 141.232ZM386.036 158.896C382.9 158.896 380.372 158.224 378.452 156.88C376.596 155.6 375.284 153.968 374.515 151.984C373.683 150 373.267 147.984 373.267 145.936C373.267 144.08 373.523 142.64 374.035 141.616C374.547 140.592 375.188 139.824 375.956 139.312C376.724 138.8 377.428 138.416 378.068 138.16C378.772 137.904 379.252 137.648 379.508 137.392C381.236 135.536 382.932 133.488 384.596 131.248C386.26 129.008 387.7 126.576 388.916 123.952V122.896C388.916 120.4 389.332 118.64 390.164 117.616C390.996 116.592 391.956 116.08 393.044 116.08C393.748 116.08 394.26 116.272 394.58 116.656C394.9 116.976 395.06 117.36 395.06 117.808C395.06 118.128 394.964 118.576 394.772 119.152C394.644 119.728 394.58 120.496 394.58 121.456C394.58 123.44 395.028 125.68 395.924 128.176C396.82 130.608 397.716 133.2 398.612 135.952C399.508 138.704 399.956 141.52 399.956 144.4C399.956 145.232 399.924 146 399.859 146.704C399.796 147.344 399.668 147.984 399.476 148.624C401.588 148.176 403.604 147.12 405.524 145.456C407.444 143.728 409.3 141.168 411.092 137.776L412.148 138.64C410.932 142.288 409.14 145.168 406.772 147.28C404.468 149.328 401.812 150.576 398.804 151.024C397.78 153.712 396.116 155.696 393.812 156.976C391.508 158.256 388.916 158.896 386.036 158.896ZM385.652 154.96C386.74 154.96 387.86 154.64 389.012 154C390.164 153.424 391.092 152.4 391.796 150.928C389.108 150.352 386.708 149.328 384.596 147.856C382.548 146.32 380.947 144.752 379.796 143.152C378.772 143.344 378.26 144.304 378.26 146.032C378.26 148.208 378.868 150.256 380.084 152.176C381.364 154.032 383.22 154.96 385.652 154.96ZM392.468 148.432C392.596 147.92 392.66 147.344 392.66 146.704C392.724 146.064 392.756 145.488 392.756 144.976C392.692 142.032 392.308 139.152 391.604 136.336C390.9 133.456 390.228 130.576 389.588 127.696C388.308 129.872 386.868 132.112 385.268 134.416C383.732 136.656 382.292 138.48 380.948 139.888C381.908 141.744 383.38 143.472 385.364 145.072C387.412 146.672 389.78 147.792 392.468 148.432Z" fill="#8B1E2D"/>
<defs>
<filter id="filter0_d_27_76" x="114" y="0" width="458" height="258" filterUnits="userSpaceOnUse" color-interpolation-filters="sRGB">
<feFlood flood-opacity="0" result="BackgroundImageFix"/>
<feColorMatrix in="SourceAlpha" type="matrix" values="0 0 0 0 0 0 0 0 0 0 0 0 0 0 0 0 0 0 127 0" result="hardAlpha"/>
<feOffset dy="4"/>
<feGaussianBlur stdDeviation="2"/>
<feComposite in2="hardAlpha" operator="out"/>
<feColorMatrix type="matrix" values="0 0 0 0 0 0 0 0 0 0 0 0 0 0 0 0 0 0 0.25 0"/>
<feBlend mode="normal" in2="BackgroundImageFix" result="effect1_dropShadow_27_76"/>
<feBlend mode="normal" in="SourceGraphic" in2="effect1_dropShadow_27_76" result="shape"/>
</filter>
</defs>
</svg>
